<svg width="87" height="84" viewBox="0 0 87 84" fill="none" xmlns="http://www.w3.org/2000/svg">
<path d="M52.3926 35.8398C55.4525 35.8398 58.2601 35.0179 60.8155 33.374C63.3708 31.7301 65.4053 29.5329 66.919 26.7822C68.4326 24.0315 69.1895 20.9961 69.1895 17.6758C69.1895 14.3555 68.4408 11.3607 66.9434 8.6914C65.446 6.02213 63.4277 3.90623 60.8887 2.3437C58.3496 0.78123 55.5176 0 52.3926 0C49.3327 0 46.5251 0.797494 43.9698 2.39249C41.4144 3.98756 39.3799 6.12786 37.8663 8.8134C36.3526 11.499 35.5958 14.4857 35.5958 17.7734C35.5958 21.0612 36.3607 24.0804 37.8907 26.831C39.4206 29.5817 41.4551 31.7708 43.9942 33.3984C46.5332 35.026 49.3327 35.8398 52.3926 35.8398ZM44.043 71.4843H76.0254C82.7311 71.4843 86.084 69.3522 86.084 65.0879C86.084 62.5814 85.319 59.8958 83.7891 57.0312C82.2591 54.1666 80.0375 51.4729 77.1241 48.9502C74.2107 46.4274 70.6706 44.3603 66.504 42.749C62.3373 41.1377 57.6335 40.332 52.3926 40.332C49.1048 40.332 46.0205 40.6738 43.1397 41.3574C40.2588 42.041 37.6139 42.9687 35.2051 44.1406C36.1165 44.8567 36.9792 45.638 37.793 46.4843C38.6068 47.3307 39.3717 48.2422 40.0879 49.2187C41.8457 48.5026 43.75 47.9411 45.8008 47.5342C47.8516 47.1273 50.0488 46.9238 52.3926 46.9238C56.722 46.9238 60.5388 47.5423 63.8428 48.7793C67.1468 50.0162 69.93 51.5624 72.1924 53.4179C74.4548 55.2734 76.1638 57.1777 77.3194 59.1308C78.475 61.0839 79.0528 62.7767 79.0528 64.209C79.0528 64.4694 78.9877 64.6484 78.8575 64.7461C78.7273 64.8437 78.5157 64.8925 78.2227 64.8925H45.1172C45.1172 66.0319 45.0195 67.1549 44.8243 68.2617C44.6289 69.3685 44.3685 70.4427 44.043 71.4843ZM52.3926 29.2968C50.6673 29.2968 49.0641 28.7841 47.5831 27.7588C46.1019 26.7334 44.9056 25.3499 43.9942 23.6084C43.0827 21.8669 42.627 19.9219 42.627 17.7734C42.627 15.625 43.0746 13.7126 43.9698 12.0361C44.865 10.3597 46.0531 9.0332 47.5342 8.0566C49.0153 7.08007 50.6348 6.5918 52.3926 6.5918C54.183 6.5918 55.8187 7.07193 57.2999 8.0322C58.7809 8.99246 59.9609 10.3108 60.8399 11.9873C61.7188 13.6637 62.1583 15.5599 62.1583 17.6758C62.1583 19.8242 61.7107 21.7773 60.8155 23.5351C59.9203 25.2929 58.7321 26.6926 57.251 27.7343C55.7699 28.776 54.1504 29.2968 52.3926 29.2968Z" fill="white"/>
<path d="M34.576 55.658L34.5761 55.6581C36.1231 58.2318 36.9044 61.0794 36.9044 64.2578C36.9044 67.3947 36.1195 70.2238 34.5568 72.8001C32.9619 75.4295 30.8548 77.5226 28.2093 79.1042C25.6092 80.6586 22.7823 81.4355 19.6777 81.4355C16.5319 81.4355 13.6967 80.6623 11.1182 79.1265C8.49489 77.564 6.40669 75.4834 4.82825 72.8575C3.2812 70.2838 2.5 67.4361 2.5 64.2578C2.5 61.0794 3.2812 58.2318 4.82825 55.658C6.40669 53.0321 8.49489 50.9515 11.1182 49.389C13.6967 47.8533 16.5319 47.0801 19.6777 47.0801C22.8605 47.0801 25.7113 47.8554 28.2861 49.3891C30.9095 50.9515 32.9976 53.0321 34.576 55.658Z" stroke="white" stroke-width="5"/>
<path d="M20.02 74C19.3812 74 18.8756 73.8074 18.503 73.4223C18.1304 73.0372 17.9441 72.5392 17.9441 71.9283V66.0717H12.0759C11.4371 66.0717 10.9315 65.8792 10.5589 65.494C10.1863 65.1089 10 64.6109 10 64C10 63.3891 10.1863 62.8911 10.5589 62.506C10.9315 62.1209 11.4371 61.9283 12.0759 61.9283H17.9441V56.0717C17.9441 55.4608 18.1304 54.9628 18.503 54.5777C18.8756 54.1926 19.3812 54 20.02 54C20.6321 54 21.1245 54.1926 21.4971 54.5777C21.8696 54.9628 22.0559 55.4608 22.0559 56.0717V61.9283H27.9242C28.5629 61.9283 29.0686 62.1209 29.4412 62.506C29.8137 62.8911 30 63.3891 30 64C30 64.6109 29.8137 65.1089 29.4412 65.494C29.0686 65.8792 28.5629 66.0717 27.9242 66.0717H22.0559V71.9283C22.0559 72.5392 21.8696 73.0372 21.4971 73.4223C21.1245 73.8074 20.6321 74 20.02 74Z" fill="white"/>
</svg>
