<svg width="21" height="12" viewBox="0 0 21 12" fill="none" xmlns="http://www.w3.org/2000/svg">
<path d="M10.5075 12C10.8688 12 11.1649 11.8724 11.3957 11.6173L20.6387 2.15818C20.8796 1.91327 21 1.61735 21 1.2704C21 0.903054 20.8821 0.59949 20.6462 0.359706C20.4104 0.119902 20.1168 0 19.7656 0C19.4344 0 19.1383 0.122451 18.8774 0.367355L9.79998 9.62757H11.2L2.12258 0.367355C1.87169 0.122451 1.58065 0 1.24948 0C0.888168 0 0.589599 0.119902 0.353769 0.359706C0.117923 0.59949 0 0.903054 0 1.2704C0 1.61735 0.12043 1.91327 0.361292 2.15818L9.61935 11.6173C9.87025 11.8724 10.1663 12 10.5075 12Z" fill="black"/>
</svg>
