<svg width="113" height="97" viewBox="0 0 113 97" fill="none" xmlns="http://www.w3.org/2000/svg">
<path d="M36.0833 42H75.9164C78.2682 42 80.0367 41.4159 81.2217 40.2477C82.4072 39.0795 83 37.3271 83 34.9907V12.2384C83 9.90197 82.4072 8.15428 81.2217 6.99533C80.0367 5.83641 78.2682 5.25695 75.9164 5.25695H69.7776C68.9257 5.25695 68.3007 5.14567 67.9026 4.92313C67.5044 4.70063 67.0739 4.32978 66.6109 3.81057L64.9165 1.89138C64.3795 1.31654 63.773 0.857596 63.097 0.514557C62.4211 0.171518 61.5183 0 60.3887 0H51.5832C50.4351 0 49.5276 0.171518 48.861 0.514557C48.1943 0.857596 47.5925 1.31654 47.0555 1.89138L45.3333 3.81057C44.8703 4.32978 44.4398 4.70063 44.0416 4.92313C43.6434 5.14567 43.0277 5.25695 42.1944 5.25695H36.0833C33.7315 5.25695 31.9629 5.83641 30.7778 6.99533C29.5926 8.15428 29 9.90197 29 12.2384V34.9907C29 37.3271 29.5926 39.0795 30.7778 40.2477C31.9629 41.4159 33.7315 42 36.0833 42ZM36.1389 37.9669C35.1389 37.9669 34.3657 37.7026 33.8194 37.1742C33.2731 36.6457 33 35.853 33 34.796V12.4609C33 11.404 33.2731 10.6066 33.8194 10.0688C34.3657 9.53109 35.1389 9.26222 36.1389 9.26222H43.25C44.2129 9.26222 45.0045 9.1417 45.6249 8.90067C46.2453 8.65959 46.824 8.24237 47.361 7.64899L48.9999 5.7854C49.6295 5.09933 50.1851 4.63112 50.6666 4.38078C51.148 4.13044 51.8888 4.00527 52.8888 4.00527H59.0554C60.0554 4.00527 60.8008 4.13044 61.2915 4.38078C61.7822 4.63112 62.3332 5.09933 62.9443 5.7854L64.6109 7.64899C65.1294 8.24237 65.6989 8.65959 66.3192 8.90067C66.9396 9.1417 67.7405 9.26222 68.722 9.26222H75.8609C76.8424 9.26222 77.6062 9.53109 78.1525 10.0688C78.6988 10.6066 78.9719 11.404 78.9719 12.4609V34.796C78.9719 35.853 78.6988 36.6457 78.1525 37.1742C77.6062 37.7026 76.8424 37.9669 75.8609 37.9669H36.1389ZM55.9999 35.0742C58.185 35.0742 60.1711 34.541 61.9582 33.4748C63.7452 32.4086 65.1665 30.9808 66.222 29.1914C67.2776 27.402 67.8053 25.404 67.8053 23.1973C67.8053 21.0093 67.2776 19.0159 66.222 17.2172C65.1665 15.4185 63.7452 13.9907 61.9582 12.9337C60.1711 11.8768 58.185 11.3483 55.9999 11.3483C53.8147 11.3483 51.8286 11.8768 50.0415 12.9337C48.2545 13.9907 46.8286 15.4185 45.7638 17.2172C44.699 19.0159 44.1666 21.0093 44.1666 23.1973C44.1666 25.404 44.699 27.402 45.7638 29.1914C46.8286 30.9808 48.2545 32.4086 50.0415 33.4748C51.8286 34.541 53.8147 35.0742 55.9999 35.0742ZM55.9999 31.3192C54.5184 31.3192 53.1619 30.9576 51.9304 30.2344C50.699 29.5112 49.7175 28.5331 48.986 27.3C48.2546 26.0669 47.8888 24.6993 47.8888 23.1973C47.8888 21.6953 48.2546 20.3324 48.986 19.1086C49.7175 17.8847 50.6943 16.9112 51.9165 16.188C53.1388 15.4649 54.4999 15.1033 55.9999 15.1033C57.4813 15.1033 58.8378 15.4649 60.0693 16.188C61.3008 16.9112 62.2776 17.8847 62.9998 19.1086C63.722 20.3324 64.0831 21.6953 64.0831 23.1973C64.0831 24.6993 63.722 26.0669 62.9998 27.3C62.2776 28.5331 61.3008 29.5112 60.0693 30.2344C58.8378 30.9576 57.4813 31.3192 55.9999 31.3192ZM68.6109 15.1589C68.6109 15.9377 68.884 16.596 69.4304 17.1338C69.9766 17.6715 70.6294 17.9311 71.3886 17.9126C72.1479 17.9126 72.8007 17.6483 73.347 17.1199C73.8933 16.5914 74.1665 15.9377 74.1665 15.1589C74.1665 14.4172 73.8933 13.7728 73.347 13.2258C72.8007 12.6788 72.1479 12.4053 71.3886 12.4053C70.6294 12.4053 69.9766 12.6788 69.4304 13.2258C68.884 13.7728 68.6109 14.4172 68.6109 15.1589Z" fill="#949090"/>
<path d="M15.668 67L13.588 63.386H12.457V67H10.975V57.965H14.095C14.7883 57.965 15.3733 58.0863 15.85 58.329C16.3353 58.5717 16.695 58.8967 16.929 59.304C17.1717 59.7113 17.293 60.1663 17.293 60.669C17.293 61.2583 17.1197 61.7957 16.773 62.281C16.435 62.7577 15.9107 63.0827 15.2 63.256L17.436 67H15.668ZM12.457 62.203H14.095C14.6497 62.203 15.0657 62.0643 15.343 61.787C15.629 61.5097 15.772 61.137 15.772 60.669C15.772 60.201 15.6333 59.837 15.356 59.577C15.0787 59.3083 14.6583 59.174 14.095 59.174H12.457V62.203ZM18.6949 63.386C18.6949 62.6667 18.8422 62.0297 19.1369 61.475C19.4402 60.9203 19.8475 60.4913 20.3589 60.188C20.8789 59.876 21.4509 59.72 22.0749 59.72C22.6382 59.72 23.1279 59.8327 23.5439 60.058C23.9685 60.2747 24.3065 60.5477 24.5579 60.877V59.837H26.0529V67H24.5579V65.934C24.3065 66.272 23.9642 66.5537 23.5309 66.779C23.0975 67.0043 22.6035 67.117 22.0489 67.117C21.4335 67.117 20.8702 66.961 20.3589 66.649C19.8475 66.3283 19.4402 65.8863 19.1369 65.323C18.8422 64.751 18.6949 64.1053 18.6949 63.386ZM24.5579 63.412C24.5579 62.918 24.4539 62.489 24.2459 62.125C24.0465 61.761 23.7822 61.4837 23.4529 61.293C23.1235 61.1023 22.7682 61.007 22.3869 61.007C22.0055 61.007 21.6502 61.1023 21.3209 61.293C20.9915 61.475 20.7229 61.748 20.5149 62.112C20.3155 62.4673 20.2159 62.892 20.2159 63.386C20.2159 63.88 20.3155 64.3133 20.5149 64.686C20.7229 65.0587 20.9915 65.3447 21.3209 65.544C21.6589 65.7347 22.0142 65.83 22.3869 65.83C22.7682 65.83 23.1235 65.7347 23.4529 65.544C23.7822 65.3533 24.0465 65.076 24.2459 64.712C24.4539 64.3393 24.5579 63.906 24.5579 63.412ZM30.5994 67.117C30.0361 67.117 29.5291 67.0173 29.0784 66.818C28.6364 66.61 28.2854 66.3327 28.0254 65.986C27.7654 65.6307 27.6267 65.2363 27.6094 64.803H29.1434C29.1694 65.1063 29.3124 65.362 29.5724 65.57C29.8411 65.7693 30.1747 65.869 30.5734 65.869C30.9894 65.869 31.3101 65.791 31.5354 65.635C31.7694 65.4703 31.8864 65.2623 31.8864 65.011C31.8864 64.7423 31.7564 64.543 31.4964 64.413C31.2451 64.283 30.8421 64.14 30.2874 63.984C29.7501 63.8367 29.3124 63.6937 28.9744 63.555C28.6364 63.4163 28.3417 63.204 28.0904 62.918C27.8477 62.632 27.7264 62.255 27.7264 61.787C27.7264 61.4057 27.8391 61.059 28.0644 60.747C28.2897 60.4263 28.6104 60.175 29.0264 59.993C29.4511 59.811 29.9364 59.72 30.4824 59.72C31.2971 59.72 31.9514 59.928 32.4454 60.344C32.9481 60.7513 33.2167 61.3103 33.2514 62.021H31.7694C31.7434 61.7003 31.6134 61.4447 31.3794 61.254C31.1454 61.0633 30.8291 60.968 30.4304 60.968C30.0404 60.968 29.7414 61.0417 29.5334 61.189C29.3254 61.3363 29.2214 61.5313 29.2214 61.774C29.2214 61.9647 29.2907 62.125 29.4294 62.255C29.5681 62.385 29.7371 62.489 29.9364 62.567C30.1357 62.6363 30.4304 62.7273 30.8204 62.84C31.3404 62.9787 31.7651 63.1217 32.0944 63.269C32.4324 63.4077 32.7227 63.6157 32.9654 63.893C33.2081 64.1703 33.3337 64.5387 33.3424 64.998C33.3424 65.4053 33.2297 65.7693 33.0044 66.09C32.7791 66.4107 32.4584 66.662 32.0424 66.844C31.6351 67.026 31.1541 67.117 30.5994 67.117ZM43.6148 59.72C44.1781 59.72 44.6808 59.837 45.1228 60.071C45.5734 60.305 45.9244 60.6517 46.1758 61.111C46.4358 61.5703 46.5658 62.125 46.5658 62.775V67H45.0968V62.996C45.0968 62.3547 44.9364 61.865 44.6158 61.527C44.2951 61.1803 43.8574 61.007 43.3028 61.007C42.7481 61.007 42.3061 61.1803 41.9768 61.527C41.6561 61.865 41.4958 62.3547 41.4958 62.996V67H40.0268V62.996C40.0268 62.3547 39.8664 61.865 39.5458 61.527C39.2251 61.1803 38.7874 61.007 38.2328 61.007C37.6781 61.007 37.2361 61.1803 36.9068 61.527C36.5861 61.865 36.4258 62.3547 36.4258 62.996V67H34.9438V59.837H36.4258V60.656C36.6684 60.3613 36.9761 60.1317 37.3488 59.967C37.7214 59.8023 38.1201 59.72 38.5448 59.72C39.1168 59.72 39.6281 59.8413 40.0788 60.084C40.5294 60.3267 40.8761 60.6777 41.1188 61.137C41.3354 60.7037 41.6734 60.3613 42.1328 60.11C42.5921 59.85 43.0861 59.72 43.6148 59.72ZM58.2765 59.837L53.8825 70.367H52.3485L53.8045 66.883L50.9835 59.837H52.6345L54.6495 65.297L56.7425 59.837H58.2765ZM65.8819 59.837V67H64.3999V66.155C64.1659 66.4497 63.8583 66.6837 63.4769 66.857C63.1043 67.0217 62.7056 67.104 62.2809 67.104C61.7176 67.104 61.2106 66.987 60.7599 66.753C60.3179 66.519 59.9669 66.1723 59.7069 65.713C59.4556 65.2537 59.3299 64.699 59.3299 64.049V59.837H60.7989V63.828C60.7989 64.4693 60.9593 64.9633 61.2799 65.31C61.6006 65.648 62.0383 65.817 62.5929 65.817C63.1476 65.817 63.5853 65.648 63.9059 65.31C64.2353 64.9633 64.3999 64.4693 64.3999 63.828V59.837H65.8819ZM70.6713 63.425L73.9733 67H71.9713L69.3193 63.919V67H67.8373V57.38H69.3193V62.97L71.9193 59.837H73.9733L70.6713 63.425ZM76.5175 57.38V67H75.0355V57.38H76.5175ZM77.9693 63.386C77.9693 62.6667 78.1166 62.0297 78.4113 61.475C78.7146 60.9203 79.1219 60.4913 79.6333 60.188C80.1533 59.876 80.7253 59.72 81.3493 59.72C81.9126 59.72 82.4023 59.8327 82.8183 60.058C83.2429 60.2747 83.5809 60.5477 83.8323 60.877V59.837H85.3273V67H83.8323V65.934C83.5809 66.272 83.2386 66.5537 82.8053 66.779C82.3719 67.0043 81.8779 67.117 81.3233 67.117C80.7079 67.117 80.1446 66.961 79.6333 66.649C79.1219 66.3283 78.7146 65.8863 78.4113 65.323C78.1166 64.751 77.9693 64.1053 77.9693 63.386ZM83.8323 63.412C83.8323 62.918 83.7283 62.489 83.5203 62.125C83.3209 61.761 83.0566 61.4837 82.7273 61.293C82.3979 61.1023 82.0426 61.007 81.6613 61.007C81.2799 61.007 80.9246 61.1023 80.5953 61.293C80.2659 61.475 79.9973 61.748 79.7893 62.112C79.5899 62.4673 79.4903 62.892 79.4903 63.386C79.4903 63.88 79.5899 64.3133 79.7893 64.686C79.9973 65.0587 80.2659 65.3447 80.5953 65.544C80.9333 65.7347 81.2886 65.83 81.6613 65.83C82.0426 65.83 82.3979 65.7347 82.7273 65.544C83.0566 65.3533 83.3209 65.076 83.5203 64.712C83.7283 64.3393 83.8323 63.906 83.8323 63.412ZM89.8738 67.117C89.3105 67.117 88.8035 67.0173 88.3528 66.818C87.9108 66.61 87.5598 66.3327 87.2998 65.986C87.0398 65.6307 86.9012 65.2363 86.8838 64.803H88.4178C88.4438 65.1063 88.5868 65.362 88.8468 65.57C89.1155 65.7693 89.4492 65.869 89.8478 65.869C90.2638 65.869 90.5845 65.791 90.8098 65.635C91.0438 65.4703 91.1608 65.2623 91.1608 65.011C91.1608 64.7423 91.0308 64.543 90.7708 64.413C90.5195 64.283 90.1165 64.14 89.5618 63.984C89.0245 63.8367 88.5868 63.6937 88.2488 63.555C87.9108 63.4163 87.6162 63.204 87.3648 62.918C87.1222 62.632 87.0008 62.255 87.0008 61.787C87.0008 61.4057 87.1135 61.059 87.3388 60.747C87.5642 60.4263 87.8848 60.175 88.3008 59.993C88.7255 59.811 89.2108 59.72 89.7568 59.72C90.5715 59.72 91.2258 59.928 91.7198 60.344C92.2225 60.7513 92.4912 61.3103 92.5258 62.021H91.0438C91.0178 61.7003 90.8878 61.4447 90.6538 61.254C90.4198 61.0633 90.1035 60.968 89.7048 60.968C89.3148 60.968 89.0158 61.0417 88.8078 61.189C88.5998 61.3363 88.4958 61.5313 88.4958 61.774C88.4958 61.9647 88.5652 62.125 88.7038 62.255C88.8425 62.385 89.0115 62.489 89.2108 62.567C89.4102 62.6363 89.7048 62.7273 90.0948 62.84C90.6148 62.9787 91.0395 63.1217 91.3688 63.269C91.7068 63.4077 91.9972 63.6157 92.2398 63.893C92.4825 64.1703 92.6082 64.5387 92.6168 64.998C92.6168 65.4053 92.5042 65.7693 92.2788 66.09C92.0535 66.4107 91.7328 66.662 91.3168 66.844C90.9095 67.026 90.4285 67.117 89.8738 67.117ZM97.9232 59.72C98.4692 59.72 98.9545 59.837 99.3792 60.071C99.8125 60.305 100.15 60.6517 100.393 61.111C100.644 61.5703 100.77 62.125 100.77 62.775V67H99.3012V62.996C99.3012 62.3547 99.1408 61.865 98.8202 61.527C98.4995 61.1803 98.0618 61.007 97.5072 61.007C96.9525 61.007 96.5105 61.1803 96.1812 61.527C95.8605 61.865 95.7002 62.3547 95.7002 62.996V67H94.2182V57.38H95.7002V60.669C95.9515 60.3657 96.2678 60.1317 96.6492 59.967C97.0392 59.8023 97.4638 59.72 97.9232 59.72Z" fill="black"/>
<path d="M1.573 92.091C1.30433 92.091 1.079 92 0.897 91.818C0.715 91.636 0.624 91.4107 0.624 91.142C0.624 90.8733 0.715 90.648 0.897 90.466C1.079 90.284 1.30433 90.193 1.573 90.193C1.833 90.193 2.054 90.284 2.236 90.466C2.418 90.648 2.509 90.8733 2.509 91.142C2.509 91.4107 2.418 91.636 2.236 91.818C2.054 92 1.833 92.091 1.573 92.091ZM4.86474 83.888C4.59608 83.888 4.37074 83.797 4.18874 83.615C4.00674 83.433 3.91574 83.2077 3.91574 82.939C3.91574 82.6703 4.00674 82.445 4.18874 82.263C4.37074 82.081 4.59608 81.99 4.86474 81.99C5.12474 81.99 5.34574 82.081 5.52774 82.263C5.70974 82.445 5.80074 82.6703 5.80074 82.939C5.80074 83.2077 5.70974 83.433 5.52774 83.615C5.34574 83.797 5.12474 83.888 4.86474 83.888ZM5.59274 93.404C5.59274 94.106 5.41508 94.613 5.05974 94.925C4.71308 95.2457 4.20608 95.406 3.53874 95.406H2.77174V94.158H3.27874C3.58208 94.158 3.79441 94.0973 3.91574 93.976C4.04574 93.8633 4.11074 93.6727 4.11074 93.404V84.837H5.59274V93.404ZM9.02048 85.89C9.27181 85.5607 9.61414 85.2833 10.0475 85.058C10.4808 84.8327 10.9705 84.72 11.5165 84.72C12.1405 84.72 12.7081 84.876 13.2195 85.188C13.7395 85.4913 14.1468 85.9203 14.4415 86.475C14.7361 87.0297 14.8835 87.6667 14.8835 88.386C14.8835 89.1053 14.7361 89.751 14.4415 90.323C14.1468 90.8863 13.7395 91.3283 13.2195 91.649C12.7081 91.961 12.1405 92.117 11.5165 92.117C10.9705 92.117 10.4851 92.0087 10.0605 91.792C9.63581 91.5667 9.28914 91.2893 9.02048 90.96V95.406H7.53848V84.837H9.02048V85.89ZM13.3755 88.386C13.3755 87.892 13.2715 87.4673 13.0635 87.112C12.8641 86.748 12.5955 86.475 12.2575 86.293C11.9281 86.1023 11.5728 86.007 11.1915 86.007C10.8188 86.007 10.4635 86.1023 10.1255 86.293C9.79614 86.4837 9.52748 86.761 9.31948 87.125C9.12014 87.489 9.02048 87.918 9.02048 88.412C9.02048 88.906 9.12014 89.3393 9.31948 89.712C9.52748 90.076 9.79614 90.3533 10.1255 90.544C10.4635 90.7347 10.8188 90.83 11.1915 90.83C11.5728 90.83 11.9281 90.7347 12.2575 90.544C12.5955 90.3447 12.8641 90.0587 13.0635 89.686C13.2715 89.3133 13.3755 88.88 13.3755 88.386ZM19.235 84.72C19.7897 84.72 20.2794 84.8327 20.704 85.058C21.1374 85.2747 21.4754 85.5477 21.718 85.877V84.837H23.213V92.117C23.213 92.7757 23.0744 93.3607 22.797 93.872C22.5197 94.392 22.1167 94.7993 21.588 95.094C21.068 95.3887 20.444 95.536 19.716 95.536C18.7454 95.536 17.9394 95.3063 17.298 94.847C16.6567 94.3963 16.2927 93.781 16.206 93.001H17.675C17.7877 93.3737 18.026 93.6727 18.39 93.898C18.7627 94.132 19.2047 94.249 19.716 94.249C20.314 94.249 20.795 94.067 21.159 93.703C21.5317 93.339 21.718 92.8103 21.718 92.117V90.921C21.4667 91.259 21.1244 91.545 20.691 91.779C20.2664 92.0043 19.781 92.117 19.235 92.117C18.611 92.117 18.039 91.961 17.519 91.649C17.0077 91.3283 16.6004 90.8863 16.297 90.323C16.0024 89.751 15.855 89.1053 15.855 88.386C15.855 87.6667 16.0024 87.0297 16.297 86.475C16.6004 85.9203 17.0077 85.4913 17.519 85.188C18.039 84.876 18.611 84.72 19.235 84.72ZM21.718 88.412C21.718 87.918 21.614 87.489 21.406 87.125C21.2067 86.761 20.9424 86.4837 20.613 86.293C20.2837 86.1023 19.9284 86.007 19.547 86.007C19.1657 86.007 18.8104 86.1023 18.481 86.293C18.1517 86.475 17.883 86.748 17.675 87.112C17.4757 87.4673 17.376 87.892 17.376 88.386C17.376 88.88 17.4757 89.3133 17.675 89.686C17.883 90.0587 18.1517 90.3447 18.481 90.544C18.819 90.7347 19.1744 90.83 19.547 90.83C19.9284 90.83 20.2837 90.7347 20.613 90.544C20.9424 90.3533 21.2067 90.076 21.406 89.712C21.614 89.3393 21.718 88.906 21.718 88.412ZM33.3465 79.728L29.8105 94.275H28.3545L31.8775 79.728H33.3465ZM39.1892 92.091C38.9205 92.091 38.6952 92 38.5132 91.818C38.3312 91.636 38.2402 91.4107 38.2402 91.142C38.2402 90.8733 38.3312 90.648 38.5132 90.466C38.6952 90.284 38.9205 90.193 39.1892 90.193C39.4492 90.193 39.6702 90.284 39.8522 90.466C40.0342 90.648 40.1252 90.8733 40.1252 91.142C40.1252 91.4107 40.0342 91.636 39.8522 91.818C39.6702 92 39.4492 92.091 39.1892 92.091ZM43.209 85.89C43.4603 85.5607 43.8026 85.2833 44.236 85.058C44.6693 84.8327 45.159 84.72 45.705 84.72C46.329 84.72 46.8966 84.876 47.408 85.188C47.928 85.4913 48.3353 85.9203 48.63 86.475C48.9246 87.0297 49.072 87.6667 49.072 88.386C49.072 89.1053 48.9246 89.751 48.63 90.323C48.3353 90.8863 47.928 91.3283 47.408 91.649C46.8966 91.961 46.329 92.117 45.705 92.117C45.159 92.117 44.6736 92.0087 44.249 91.792C43.8243 91.5667 43.4776 91.2893 43.209 90.96V95.406H41.727V84.837H43.209V85.89ZM47.564 88.386C47.564 87.892 47.46 87.4673 47.252 87.112C47.0526 86.748 46.784 86.475 46.446 86.293C46.1166 86.1023 45.7613 86.007 45.38 86.007C45.0073 86.007 44.652 86.1023 44.314 86.293C43.9846 86.4837 43.716 86.761 43.508 87.125C43.3086 87.489 43.209 87.918 43.209 88.412C43.209 88.906 43.3086 89.3393 43.508 89.712C43.716 90.076 43.9846 90.3533 44.314 90.544C44.652 90.7347 45.0073 90.83 45.38 90.83C45.7613 90.83 46.1166 90.7347 46.446 90.544C46.784 90.3447 47.0526 90.0587 47.252 89.686C47.46 89.3133 47.564 88.88 47.564 88.386ZM54.1515 84.72C54.7148 84.72 55.2175 84.837 55.6595 85.071C56.1102 85.305 56.4612 85.6517 56.7125 86.111C56.9638 86.5703 57.0895 87.125 57.0895 87.775V92H55.6205V87.996C55.6205 87.3547 55.4602 86.865 55.1395 86.527C54.8188 86.1803 54.3812 86.007 53.8265 86.007C53.2718 86.007 52.8298 86.1803 52.5005 86.527C52.1798 86.865 52.0195 87.3547 52.0195 87.996V92H50.5375V84.837H52.0195V85.656C52.2622 85.3613 52.5698 85.1317 52.9425 84.967C53.3238 84.8023 53.7268 84.72 54.1515 84.72ZM61.8659 84.72C62.4205 84.72 62.9102 84.8327 63.3349 85.058C63.7682 85.2747 64.1062 85.5477 64.3489 85.877V84.837H65.8439V92.117C65.8439 92.7757 65.7052 93.3607 65.4279 93.872C65.1505 94.392 64.7475 94.7993 64.2189 95.094C63.6989 95.3887 63.0749 95.536 62.3469 95.536C61.3762 95.536 60.5702 95.3063 59.9289 94.847C59.2875 94.3963 58.9235 93.781 58.8369 93.001H60.3059C60.4185 93.3737 60.6569 93.6727 61.0209 93.898C61.3935 94.132 61.8355 94.249 62.3469 94.249C62.9449 94.249 63.4259 94.067 63.7899 93.703C64.1625 93.339 64.3489 92.8103 64.3489 92.117V90.921C64.0975 91.259 63.7552 91.545 63.3219 91.779C62.8972 92.0043 62.4119 92.117 61.8659 92.117C61.2419 92.117 60.6699 91.961 60.1499 91.649C59.6385 91.3283 59.2312 90.8863 58.9279 90.323C58.6332 89.751 58.4859 89.1053 58.4859 88.386C58.4859 87.6667 58.6332 87.0297 58.9279 86.475C59.2312 85.9203 59.6385 85.4913 60.1499 85.188C60.6699 84.876 61.2419 84.72 61.8659 84.72ZM64.3489 88.412C64.3489 87.918 64.2449 87.489 64.0369 87.125C63.8375 86.761 63.5732 86.4837 63.2439 86.293C62.9145 86.1023 62.5592 86.007 62.1779 86.007C61.7965 86.007 61.4412 86.1023 61.1119 86.293C60.7825 86.475 60.5139 86.748 60.3059 87.112C60.1065 87.4673 60.0069 87.892 60.0069 88.386C60.0069 88.88 60.1065 89.3133 60.3059 89.686C60.5139 90.0587 60.7825 90.3447 61.1119 90.544C61.4499 90.7347 61.8052 90.83 62.1779 90.83C62.5592 90.83 62.9145 90.7347 63.2439 90.544C63.5732 90.3533 63.8375 90.076 64.0369 89.712C64.2449 89.3393 64.3489 88.906 64.3489 88.412ZM75.9774 79.728L72.4414 94.275H70.9854L74.5084 79.728H75.9774ZM81.8201 92.091C81.5514 92.091 81.3261 92 81.1441 91.818C80.9621 91.636 80.8711 91.4107 80.8711 91.142C80.8711 90.8733 80.9621 90.648 81.1441 90.466C81.3261 90.284 81.5514 90.193 81.8201 90.193C82.0801 90.193 82.3011 90.284 82.4831 90.466C82.6651 90.648 82.7561 90.8733 82.7561 91.142C82.7561 91.4107 82.6651 91.636 82.4831 91.818C82.3011 92 82.0801 92.091 81.8201 92.091ZM85.1118 83.888C84.8431 83.888 84.6178 83.797 84.4358 83.615C84.2538 83.433 84.1628 83.2077 84.1628 82.939C84.1628 82.6703 84.2538 82.445 84.4358 82.263C84.6178 82.081 84.8431 81.99 85.1118 81.99C85.3718 81.99 85.5928 82.081 85.7748 82.263C85.9568 82.445 86.0478 82.6703 86.0478 82.939C86.0478 83.2077 85.9568 83.433 85.7748 83.615C85.5928 83.797 85.3718 83.888 85.1118 83.888ZM85.8398 93.404C85.8398 94.106 85.6621 94.613 85.3068 94.925C84.9601 95.2457 84.4531 95.406 83.7858 95.406H83.0188V94.158H83.5258C83.8291 94.158 84.0415 94.0973 84.1628 93.976C84.2928 93.8633 84.3578 93.6727 84.3578 93.404V84.837H85.8398V93.404ZM89.2675 85.89C89.5189 85.5607 89.8612 85.2833 90.2945 85.058C90.7279 84.8327 91.2175 84.72 91.7635 84.72C92.3875 84.72 92.9552 84.876 93.4665 85.188C93.9865 85.4913 94.3939 85.9203 94.6885 86.475C94.9832 87.0297 95.1305 87.6667 95.1305 88.386C95.1305 89.1053 94.9832 89.751 94.6885 90.323C94.3939 90.8863 93.9865 91.3283 93.4665 91.649C92.9552 91.961 92.3875 92.117 91.7635 92.117C91.2175 92.117 90.7322 92.0087 90.3075 91.792C89.8829 91.5667 89.5362 91.2893 89.2675 90.96V95.406H87.7855V84.837H89.2675V85.89ZM93.6225 88.386C93.6225 87.892 93.5185 87.4673 93.3105 87.112C93.1112 86.748 92.8425 86.475 92.5045 86.293C92.1752 86.1023 91.8199 86.007 91.4385 86.007C91.0659 86.007 90.7105 86.1023 90.3725 86.293C90.0432 86.4837 89.7745 86.761 89.5665 87.125C89.3672 87.489 89.2675 87.918 89.2675 88.412C89.2675 88.906 89.3672 89.3393 89.5665 89.712C89.7745 90.076 90.0432 90.3533 90.3725 90.544C90.7105 90.7347 91.0659 90.83 91.4385 90.83C91.8199 90.83 92.1752 90.7347 92.5045 90.544C92.8425 90.3447 93.1112 90.0587 93.3105 89.686C93.5185 89.3133 93.6225 88.88 93.6225 88.386ZM103.161 88.243C103.161 88.5117 103.144 88.7543 103.109 88.971H97.6361C97.6794 89.543 97.8918 90.0023 98.2731 90.349C98.6544 90.6957 99.1224 90.869 99.6771 90.869C100.474 90.869 101.038 90.5353 101.367 89.868H102.966C102.749 90.5267 102.355 91.0683 101.783 91.493C101.22 91.909 100.518 92.117 99.6771 92.117C98.9924 92.117 98.3771 91.9653 97.8311 91.662C97.2938 91.35 96.8691 90.9167 96.5571 90.362C96.2538 89.7987 96.1021 89.1487 96.1021 88.412C96.1021 87.6753 96.2494 87.0297 96.5441 86.475C96.8474 85.9117 97.2678 85.4783 97.8051 85.175C98.3511 84.8717 98.9751 84.72 99.6771 84.72C100.353 84.72 100.955 84.8673 101.484 85.162C102.013 85.4567 102.424 85.8727 102.719 86.41C103.014 86.9387 103.161 87.5497 103.161 88.243ZM101.614 87.775C101.605 87.229 101.41 86.7913 101.029 86.462C100.648 86.1327 100.175 85.968 99.6121 85.968C99.1008 85.968 98.6631 86.1327 98.2991 86.462C97.9351 86.7827 97.7184 87.2203 97.6491 87.775H101.614ZM107.506 84.72C108.06 84.72 108.55 84.8327 108.975 85.058C109.408 85.2747 109.746 85.5477 109.989 85.877V84.837H111.484V92.117C111.484 92.7757 111.345 93.3607 111.068 93.872C110.79 94.392 110.387 94.7993 109.859 95.094C109.339 95.3887 108.715 95.536 107.987 95.536C107.016 95.536 106.21 95.3063 105.569 94.847C104.927 94.3963 104.563 93.781 104.477 93.001H105.946C106.058 93.3737 106.297 93.6727 106.661 93.898C107.033 94.132 107.475 94.249 107.987 94.249C108.585 94.249 109.066 94.067 109.43 93.703C109.802 93.339 109.989 92.8103 109.989 92.117V90.921C109.737 91.259 109.395 91.545 108.962 91.779C108.537 92.0043 108.052 92.117 107.506 92.117C106.882 92.117 106.31 91.961 105.79 91.649C105.278 91.3283 104.871 90.8863 104.568 90.323C104.273 89.751 104.126 89.1053 104.126 88.386C104.126 87.6667 104.273 87.0297 104.568 86.475C104.871 85.9203 105.278 85.4913 105.79 85.188C106.31 84.876 106.882 84.72 107.506 84.72ZM109.989 88.412C109.989 87.918 109.885 87.489 109.677 87.125C109.477 86.761 109.213 86.4837 108.884 86.293C108.554 86.1023 108.199 86.007 107.818 86.007C107.436 86.007 107.081 86.1023 106.752 86.293C106.422 86.475 106.154 86.748 105.946 87.112C105.746 87.4673 105.647 87.892 105.647 88.386C105.647 88.88 105.746 89.3133 105.946 89.686C106.154 90.0587 106.422 90.3447 106.752 90.544C107.09 90.7347 107.445 90.83 107.818 90.83C108.199 90.83 108.554 90.7347 108.884 90.544C109.213 90.3533 109.477 90.076 109.677 89.712C109.885 89.3393 109.989 88.906 109.989 88.412Z" fill="#0AB64F"/>
</svg>
