<svg width="34" height="29" viewBox="0 0 34 29" fill="" xmlns="http://www.w3.org/2000/svg">
<path d="M12.0362 21.8388H28.9429C29.2664 21.8388 29.5494 21.7173 29.792 21.4742C30.0346 21.2311 30.1559 20.9351 30.1559 20.5861C30.1559 20.2246 30.0346 19.9223 29.792 19.6792C29.5494 19.4362 29.2664 19.3146 28.9429 19.3146H12.2788C11.8932 19.3146 11.5821 19.1837 11.3458 18.922C11.1094 18.6602 10.9601 18.3236 10.8979 17.9123L8.58396 1.94454C8.48445 1.29635 8.28229 0.810211 7.97749 0.486126C7.6727 0.162042 7.09732 0 6.25137 0H1.23163C0.908164 0 0.622026 0.12464 0.373215 0.373926C0.124405 0.623237 0 0.916179 0 1.25275C0 1.58929 0.124405 1.88221 0.373215 2.13153C0.622026 2.38081 0.908164 2.50545 1.23163 2.50545H5.99011L8.26676 18.2302C8.44093 19.3396 8.82969 20.2184 9.43304 20.8666C10.0364 21.5147 10.9041 21.8388 12.0362 21.8388ZM9.27444 16.6035H29.0736C30.1808 16.6035 31.0392 16.2763 31.6488 15.6219C32.2583 14.9674 32.644 14.0918 32.8057 12.9948L33.944 5.36619C33.9565 5.26648 33.9689 5.16365 33.9813 5.0577C33.9938 4.95173 34 4.86759 34 4.80528C34 4.41885 33.8663 4.10723 33.5988 3.8704C33.3313 3.63357 32.9799 3.51516 32.5445 3.51516H8.11744V6.03934H31.1449L30.1932 12.677C30.0564 13.6118 29.5898 14.0793 28.7936 14.0793L9.25575 14.098L9.27444 16.6035ZM12.9506 29C13.6348 29 14.2102 28.7632 14.6767 28.2895C15.1433 27.8158 15.3765 27.2424 15.3765 26.5693C15.3765 25.8962 15.1433 25.3228 14.6767 24.8491C14.2102 24.3755 13.6348 24.1386 12.9506 24.1386C12.2788 24.1386 11.7066 24.3755 11.2338 24.8491C10.7611 25.3228 10.5247 25.8962 10.5247 26.5693C10.5247 27.2424 10.7611 27.8158 11.2338 28.2895C11.7066 28.7632 12.2788 29 12.9506 29ZM26.7969 29C27.4687 29 28.041 28.7632 28.5137 28.2895C28.9865 27.8158 29.2228 27.2424 29.2228 26.5693C29.2228 25.8962 28.9865 25.3228 28.5137 24.8491C28.041 24.3755 27.4687 24.1386 26.7969 24.1386C26.1127 24.1386 25.5342 24.3755 25.0615 24.8491C24.5887 25.3228 24.3524 25.8962 24.3524 26.5693C24.3524 27.2424 24.5887 27.8158 25.0615 28.2895C25.5342 28.7632 26.1127 29 26.7969 29Z" fill=""/>
</svg>
