<svg width="29" height="22" viewBox="0 0 29 22" fill="" xmlns="http://www.w3.org/2000/svg">
<path d="M2.29674 14.5238L8.17557 9.21646C8.25555 9.1463 8.34126 9.11122 8.43269 9.11122C8.52409 9.11122 8.60979 9.1463 8.68977 9.21646L13.4545 13.5616C13.7631 13.8422 14.0773 14.0502 14.3972 14.1855C14.7171 14.3209 15.0428 14.3885 15.3742 14.3885C16.0255 14.3885 16.6653 14.1129 17.2938 13.5616L22.5042 8.97592L24.5952 10.8102C24.778 10.9705 24.9694 11.0482 25.1694 11.0432C25.3693 11.0382 25.5493 10.9706 25.7093 10.8403C25.8692 10.71 25.9835 10.5345 26.0521 10.314L28.1602 3.30772C28.2174 3.10725 28.2002 2.92431 28.1088 2.75892C28.0174 2.59355 27.8745 2.47076 27.6803 2.39056C27.4861 2.31038 27.2747 2.30036 27.0462 2.36051L19.0934 4.19477C18.8421 4.26493 18.6392 4.37018 18.485 4.51051C18.3307 4.65084 18.2536 4.8062 18.2536 4.9766C18.2536 5.147 18.345 5.31238 18.5278 5.47275L20.636 7.32207L15.6313 11.7574C15.5513 11.8276 15.4656 11.8626 15.3742 11.8626C15.2828 11.8626 15.197 11.8276 15.1171 11.7574L10.3523 7.41225C10.0438 7.13162 9.72958 6.92364 9.40964 6.78832C9.0897 6.653 8.76405 6.58534 8.43269 6.58534C8.10131 6.58534 7.78137 6.6505 7.47287 6.78081C7.16435 6.9111 6.84441 7.12158 6.51305 7.41225L0.428528 12.87L2.29674 14.5238Z" fill=""/>
<path d="M0 20.7784C0 21.0891 0.105689 21.3372 0.317066 21.5226C0.528472 21.708 0.811274 21.8008 1.16547 21.8008H27.766C28.1087 21.8008 28.4001 21.6955 28.6401 21.485C28.88 21.2745 29 21.0189 29 20.7182C29 20.4276 28.88 20.1745 28.6401 19.959C28.4001 19.7435 28.1087 19.6357 27.766 19.6357H2.89658C2.61092 19.6357 2.4681 19.5154 2.4681 19.2749V1.08251C2.4681 0.791838 2.34812 0.538751 2.10816 0.32325C1.86821 0.107749 1.57683 0 1.23403 0C0.891248 0 0.59988 0.107749 0.359925 0.32325C0.119975 0.538751 0 0.791838 0 1.08251V20.7784Z" fill=""/>
</svg>
