<svg width="50" height="50" viewBox="0 0 50 50" fill="none" xmlns="http://www.w3.org/2000/svg">
<rect width="50" height="50" rx="25" fill="#0AB64F"/>
<path d="M25.4043 40.8086C27.5167 40.8086 29.5019 40.4077 31.3599 39.606C33.2178 38.8043 34.8562 37.6908 36.2751 36.2656C37.694 34.8403 38.8075 33.1987 39.6156 31.3408C40.4237 29.4828 40.8277 27.504 40.8277 25.4043C40.8277 23.3046 40.4237 21.3258 39.6156 19.4678C38.8075 17.6099 37.6908 15.9683 36.2656 14.543C34.8403 13.1178 33.1987 12.0043 31.3408 11.2026C29.4828 10.4009 27.4977 10 25.3852 10C23.2855 10 21.3067 10.4009 19.4487 11.2026C17.5908 12.0043 15.9556 13.1178 14.543 14.543C13.1305 15.9683 12.0202 17.6099 11.2121 19.4678C10.404 21.3258 10 23.3046 10 25.4043C10 27.504 10.404 29.4828 11.2121 31.3408C12.0202 33.1987 13.1337 34.8403 14.5526 36.2656C15.9715 37.6908 17.6099 38.8043 19.4678 39.606C21.3258 40.4077 23.3046 40.8086 25.4043 40.8086ZM25.4043 37.9072C23.6736 37.9072 22.0543 37.5858 20.5463 36.9432C19.0383 36.3006 17.7149 35.4066 16.5759 34.2613C15.437 33.116 14.5462 31.7862 13.9036 30.2718C13.2609 28.7575 12.9396 27.135 12.9396 25.4043C12.9396 23.6736 13.2578 22.0511 13.894 20.5368C14.5303 19.0224 15.4179 17.6926 16.5568 16.5473C17.6958 15.402 19.0192 14.508 20.5272 13.8654C22.0352 13.2228 23.6545 12.9014 25.3852 12.9014C27.1286 12.9014 28.7543 13.2228 30.2623 13.8654C31.7703 14.508 33.0969 15.402 34.2422 16.5473C35.3875 17.6926 36.2847 19.0224 36.9337 20.5368C37.5827 22.0511 37.9072 23.6736 37.9072 25.4043C37.9072 27.135 37.5858 28.7575 36.9432 30.2718C36.3006 31.7862 35.4098 33.116 34.2708 34.2613C33.1319 35.4066 31.8053 36.3006 30.2909 36.9432C28.7766 37.5858 27.1477 37.9072 25.4043 37.9072Z" fill="white"/>
<path d="M33.0778 25.3852C33.0778 25.0543 32.9124 24.7234 32.5815 24.3926L27.6949 19.4869C27.4785 19.2578 27.1859 19.1433 26.8168 19.1433C26.4732 19.1433 26.1837 19.261 25.9483 19.4964C25.7129 19.7319 25.5952 20.0277 25.5952 20.384C25.5952 20.7276 25.7161 21.0267 25.9578 21.2812L27.5422 22.8464L29.2983 24.2399L25.9006 24.1254H18.9333C18.577 24.1254 18.278 24.2431 18.0362 24.4785C17.7944 24.7139 17.6735 25.0161 17.6735 25.3852C17.6735 25.7542 17.7944 26.0596 18.0362 26.3014C18.278 26.5432 18.577 26.6641 18.9333 26.6641H25.9006L29.3174 26.5305L27.5422 27.943L25.9578 29.4892C25.7161 29.7182 25.5952 30.0237 25.5952 30.4054C25.5952 30.749 25.7129 31.0417 25.9483 31.2835C26.1837 31.5253 26.4732 31.6462 26.8168 31.6462C27.1731 31.6462 27.4658 31.5316 27.6949 31.3026L32.5815 26.3969C32.9124 26.066 33.0778 25.7288 33.0778 25.3852Z" fill="white"/>
</svg>
