<svg width="38" height="28" viewBox="0 0 38 28" fill="" xmlns="http://www.w3.org/2000/svg">
<path d="M3.53653 28H26.2463C27.396 28 28.2729 27.6398 28.8768 26.9194C29.4808 26.1989 29.7828 25.1303 29.7828 23.7134V12.0964L27.6785 14.7079V23.8575C27.6785 24.4098 27.5567 24.8331 27.313 25.1273C27.0696 25.4214 26.7237 25.5685 26.2756 25.5685H3.50732C3.05916 25.5685 2.7133 25.4214 2.46974 25.1273C2.22617 24.8331 2.10439 24.4098 2.10439 23.8575V11.7722C2.10439 10.6195 2.57203 10.0431 3.50732 10.0431H22.3152L24.2881 7.62964H3.53653C2.38691 7.62964 1.51009 7.98986 0.906065 8.7103C0.302022 9.43074 0 10.4994 0 11.9162V23.7134C0 25.1303 0.302022 26.1989 0.906065 26.9194C1.51009 27.6398 2.38691 28 3.53653 28Z" fill=""/>
<path d="M21.5946 16.7649L24.299 15.6111L35.6865 4.25146L33.748 2.35007L22.3766 13.7097L21.1385 16.3099C21.0842 16.4291 21.1113 16.5482 21.2199 16.6674C21.3285 16.7866 21.4534 16.8191 21.5946 16.7649ZM5.93865 18C6.45999 18 6.91072 17.8104 7.29085 17.4312C7.67099 17.052 7.86106 16.597 7.86106 16.0661C7.86106 15.5461 7.67099 15.0964 7.29085 14.7172C6.91072 14.3381 6.45999 14.1485 5.93865 14.1485C5.40649 14.1485 4.95034 14.3381 4.5702 14.7172C4.19007 15.0964 4 15.5461 4 16.0661C4 16.597 4.19007 17.052 4.5702 17.4312C4.95034 17.8104 5.40649 18 5.93865 18ZM17.196 18C17.7173 18 18.168 17.8104 18.5482 17.4312C18.9283 17.052 19.1184 16.597 19.1184 16.0661C19.1184 15.5461 18.9283 15.0964 18.5482 14.7172C18.168 14.3381 17.7173 14.1485 17.196 14.1485C16.6638 14.1485 16.2076 14.3381 15.8275 14.7172C15.4474 15.0964 15.2573 15.5461 15.2573 16.0661C15.2573 16.597 15.4474 17.052 15.8275 17.4312C16.2076 17.8104 16.6638 18 17.196 18ZM11.5592 18C12.0913 18 12.5448 17.8104 12.9195 17.4312C13.2942 17.052 13.4816 16.597 13.4816 16.0661C13.4816 15.5461 13.2942 15.0964 12.9195 14.7172C12.5448 14.3381 12.0913 14.1485 11.5592 14.1485C11.027 14.1485 10.5736 14.3381 10.1988 14.7172C9.82414 15.0964 9.63679 15.5461 9.63679 16.0661C9.63679 16.597 9.82414 17.052 10.1988 17.4312C10.5736 17.8104 11.027 18 11.5592 18ZM36.6804 3.26014L37.658 2.25258C37.886 2.01424 38 1.74338 38 1.44002C38 1.13667 37.886 0.871226 37.658 0.643707L37.2993 0.286185C37.0932 0.0803218 36.8407 -0.0144778 36.542 0.00178627C36.2432 0.0180281 35.9853 0.134494 35.7682 0.351185L34.758 1.32626L36.6804 3.26014Z" fill=""/>
</svg>
