<svg width="29" height="29" viewBox="0 0 29 29" fill="" xmlns="http://www.w3.org/2000/svg">
<path d="M0 14.5C0 14.9878 0.177506 15.409 0.532519 15.7638C0.887538 16.1185 1.30911 16.2959 1.79725 16.2959H12.7138V27.2041C12.7138 27.6771 12.8913 28.0947 13.2464 28.4568C13.6014 28.8189 14.023 29 14.5111 29C14.9992 29 15.4171 28.8189 15.7647 28.4568C16.1123 28.0947 16.2862 27.6771 16.2862 27.2041V16.2959H27.2249C27.6983 16.2959 28.1125 16.1185 28.4675 15.7638C28.8225 15.409 29 14.9878 29 14.5C29 14.0122 28.8225 13.591 28.4675 13.2362C28.1125 12.8815 27.6983 12.7041 27.2249 12.7041H16.2862V1.79588C16.2862 1.3229 16.1123 0.905333 15.7647 0.543199C15.4171 0.181065 14.9992 0 14.5111 0C14.023 0 13.6014 0.181065 13.2464 0.543199C12.8913 0.905333 12.7138 1.3229 12.7138 1.79588V12.7041H1.79725C1.30911 12.7041 0.887538 12.8815 0.532519 13.2362C0.177506 13.591 0 14.0122 0 14.5Z" fill=""/>
</svg>
