<svg width="32" height="31" viewBox="0 0 32 31" fill="none" xmlns="http://www.w3.org/2000/svg">
<path d="M15.5 31C17.6256 31 19.6231 30.5967 21.4926 29.79C23.362 28.9833 25.0106 27.8629 26.4384 26.4287C27.8661 24.9946 28.9865 23.3428 29.7996 21.4733C30.6127 19.6039 31.0192 17.6128 31.0192 15.5C31.0192 13.3872 30.6127 11.3961 29.7996 9.52662C28.9865 7.65715 27.8629 6.00536 26.4287 4.57125C24.9946 3.13712 23.3428 2.01672 21.4734 1.21005C19.6039 0.40335 17.6064 0 15.4808 0C13.368 0 11.3769 0.40335 9.50745 1.21005C7.63798 2.01672 5.99257 3.13712 4.57124 4.57125C3.14993 6.00536 2.03273 7.65715 1.21964 9.52662C0.406546 11.3961 0 13.3872 0 15.5C0 17.6128 0.406546 19.6039 1.21964 21.4733C2.03273 23.3428 3.15313 24.9946 4.58084 26.4287C6.00857 27.8629 7.65717 28.9833 9.52665 29.79C11.3961 30.5967 13.3872 31 15.5 31ZM15.5 28.0805C13.7586 28.0805 12.1292 27.7572 10.6118 27.1106C9.09448 26.464 7.76279 25.5644 6.61678 24.412C5.47077 23.2596 4.57445 21.9215 3.92782 20.3978C3.28119 18.874 2.95788 17.2414 2.95788 15.5C2.95788 13.7586 3.27799 12.126 3.91822 10.6022C4.55845 9.07848 5.45157 7.7404 6.59758 6.58796C7.74359 5.43556 9.07527 4.53604 10.5926 3.88941C12.11 3.24278 13.7394 2.91947 15.4808 2.91947C17.235 2.91947 18.8708 3.24278 20.3882 3.88941C21.9055 4.53604 23.2404 5.43556 24.3928 6.58796C25.5452 7.7404 26.448 9.07848 27.101 10.6022C27.754 12.126 28.0806 13.7586 28.0806 15.5C28.0806 17.2414 27.7572 18.874 27.1106 20.3978C26.464 21.9215 25.5676 23.2596 24.4216 24.412C23.2756 25.5644 21.9407 26.464 20.417 27.1106C18.8932 27.7572 17.2542 28.0805 15.5 28.0805Z" fill="white"/>
<path d="M13.8483 22.6448C14.4246 22.6448 14.8855 22.3759 15.2312 21.8381L21.8384 11.3896C21.9409 11.2231 22.0369 11.047 22.1265 10.8614C22.2162 10.6757 22.261 10.4804 22.261 10.2755C22.261 9.89141 22.1169 9.58731 21.8288 9.36322C21.5407 9.13914 21.2174 9.0271 20.8589 9.0271C20.3851 9.0271 19.9946 9.28319 19.6873 9.79537L13.7715 19.3604L11.121 15.7879C10.9161 15.519 10.7112 15.3366 10.5063 15.2405C10.3015 15.1445 10.0838 15.0965 9.85332 15.0965C9.48199 15.0965 9.16827 15.2309 8.91217 15.4998C8.65607 15.7687 8.52802 16.0889 8.52802 16.4602C8.52802 16.8315 8.65607 17.1836 8.91217 17.5166L12.3694 21.8381C12.5871 22.1326 12.8144 22.3407 13.0512 22.4624C13.2881 22.584 13.5538 22.6448 13.8483 22.6448Z" fill="white"/>
</svg>
