<svg width="22" height="22" viewBox="0 0 22 22" fill="none" xmlns="http://www.w3.org/2000/svg">
<path d="M0.478949 21.5104C0.798226 21.8436 1.19734 22.0067 1.67628 21.9998C2.15522 21.9928 2.55434 21.8297 2.87361 21.5104L10.9947 13.3685L19.1366 21.5104C19.4559 21.8297 19.8515 21.9928 20.3235 21.9998C20.7955 22.0067 21.1912 21.8436 21.5105 21.5104C21.8436 21.1912 22.0068 20.7955 21.9998 20.3235C21.9928 19.8515 21.8297 19.4559 21.5105 19.1366L13.3686 10.9947L21.5105 2.87362C21.8297 2.54044 21.9928 2.13785 21.9998 1.66584C22.0068 1.19386 21.8436 0.798221 21.5105 0.478916C21.1912 0.159639 20.7955 0 20.3235 0C19.8515 0 19.4559 0.159639 19.1366 0.478916L10.9947 8.62082L2.87361 0.478916C2.55434 0.159639 2.15522 0 1.67628 0C1.19734 0 0.798226 0.159639 0.478949 0.478916C0.15965 0.798221 0 1.19386 0 1.66584C0 2.13785 0.15965 2.54044 0.478949 2.87362L8.62085 10.9947L0.478949 19.1366C0.15965 19.4559 0 19.8515 0 20.3235C0 20.7955 0.15965 21.1912 0.478949 21.5104Z" fill="white"/>
</svg>
