<svg width="51" height="43" viewBox="0 0 51 43" fill="none" xmlns="http://www.w3.org/2000/svg">
<path d="M18.0543 32.3817H43.4144C43.8996 32.3817 44.3241 32.2015 44.688 31.8411C45.0519 31.4806 45.2339 31.0417 45.2339 30.5242C45.2339 29.9882 45.0519 29.54 44.688 29.1796C44.3241 28.8191 43.8996 28.6389 43.4144 28.6389H18.4182C17.8397 28.6389 17.3732 28.4449 17.0187 28.0567C16.6641 27.6686 16.4402 27.1695 16.3469 26.5596L12.8759 2.88329C12.7267 1.92217 12.4234 1.20135 11.9662 0.720808C11.509 0.24027 10.646 0 9.37705 0H1.84745C1.36225 0 0.933038 0.184812 0.559823 0.554442C0.186608 0.924111 0 1.35847 0 1.85752C0 2.35653 0.186608 2.79087 0.559823 3.16054C0.933038 3.53017 1.36225 3.71498 1.84745 3.71498H8.98517L12.4001 27.0309C12.6614 28.6759 13.2445 29.9789 14.1496 30.9401C15.0546 31.9011 16.3562 32.3817 18.0543 32.3817ZM13.9117 24.6189H43.6103C45.2711 24.6189 46.5587 24.1338 47.4731 23.1635C48.3875 22.1931 48.966 20.8947 49.2086 19.2682L50.9161 7.95676C50.9347 7.80891 50.9534 7.65644 50.972 7.49935C50.9907 7.34223 51 7.21746 51 7.12507C51 6.55209 50.7994 6.09003 50.3982 5.73887C49.997 5.38771 49.4698 5.21213 48.8167 5.21213H12.1762V8.95488H46.7173L45.2898 18.7969C45.0845 20.1831 44.3848 20.8762 43.1905 20.8762L13.8836 20.9039L13.9117 24.6189ZM19.4259 43C20.4523 43 21.3153 42.6488 22.0151 41.9465C22.7149 41.2441 23.0648 40.3939 23.0648 39.3959C23.0648 38.3978 22.7149 37.5476 22.0151 36.8453C21.3153 36.1429 20.4523 35.7917 19.4259 35.7917C18.4182 35.7917 17.5598 36.1429 16.8507 36.8453C16.1416 37.5476 15.7871 38.3978 15.7871 39.3959C15.7871 40.3939 16.1416 41.2441 16.8507 41.9465C17.5598 42.6488 18.4182 43 19.4259 43ZM40.1954 43C41.2031 43 42.0615 42.6488 42.7706 41.9465C43.4797 41.2441 43.8342 40.3939 43.8342 39.3959C43.8342 38.3978 43.4797 37.5476 42.7706 36.8453C42.0615 36.1429 41.2031 35.7917 40.1954 35.7917C39.1691 35.7917 38.3013 36.1429 37.5922 36.8453C36.8831 37.5476 36.5286 38.3978 36.5286 39.3959C36.5286 40.3939 36.8831 41.2441 37.5922 41.9465C38.3013 42.6488 39.1691 43 40.1954 43Z" fill="#4361EE"/>
</svg>
