<svg width="38" height="38" viewBox="0 0 38 38" fill="none" xmlns="http://www.w3.org/2000/svg">
<path d="M0 15.5023C0 17.631 0.402189 19.6337 1.20657 21.5106C2.0109 23.3874 3.124 25.0368 4.54586 26.4586C5.96773 27.8805 7.61301 28.9895 9.48172 29.7858C11.3504 30.582 13.3573 30.9801 15.5023 30.9801C17.1435 30.9801 18.7116 30.7364 20.2066 30.2489C21.7015 29.7614 23.0746 29.0789 24.3258 28.2014L33.3932 37.2931C33.6532 37.5369 33.9376 37.7156 34.2463 37.8294C34.5551 37.9431 34.8719 38 35.1969 38C35.9119 38 36.4969 37.7644 36.9519 37.2931C37.4069 36.8219 37.6344 36.2288 37.6344 35.5138C37.6344 35.1725 37.5735 34.8516 37.4516 34.551C37.3297 34.2504 37.1632 33.9863 36.9519 33.7588L27.9333 24.7158C28.892 23.4321 29.6395 22.0062 30.1758 20.4381C30.712 18.87 30.9801 17.2247 30.9801 15.5023C30.9801 13.3573 30.5779 11.3504 29.7736 9.4817C28.9692 7.61299 27.8602 5.96771 26.4465 4.54584C25.0327 3.12401 23.3874 2.01091 21.5106 1.20655C19.6337 0.402182 17.631 0 15.5023 0C13.3573 0 11.3504 0.402182 9.48172 1.20655C7.61301 2.01091 5.96773 3.12401 4.54586 4.54584C3.124 5.96771 2.0109 7.61299 1.20657 9.4817C0.402189 11.3504 0 13.3573 0 15.5023ZM3.75369 15.5023C3.75369 13.8773 4.05431 12.3539 4.65553 10.932C5.25679 9.51014 6.09772 8.26297 7.1783 7.19051C8.25892 6.11801 9.51016 5.27709 10.932 4.66774C12.3539 4.05836 13.8773 3.75367 15.5023 3.75367C17.1272 3.75367 18.6466 4.05836 20.0603 4.66774C21.474 5.27709 22.7212 6.11801 23.8018 7.19051C24.8824 8.26297 25.7274 9.51014 26.3368 10.932C26.9461 12.3539 27.2508 13.8773 27.2508 15.5023C27.2508 17.1272 26.9461 18.6466 26.3368 20.0603C25.7274 21.474 24.8824 22.7212 23.8018 23.8018C22.7212 24.8824 21.474 25.7274 20.0603 26.3368C18.6466 26.9461 17.1272 27.2508 15.5023 27.2508C13.8773 27.2508 12.3539 26.9461 10.932 26.3368C9.51016 25.7274 8.25892 24.8824 7.1783 23.8018C6.09772 22.7212 5.25679 21.474 4.65553 20.0603C4.05431 18.6466 3.75369 17.1272 3.75369 15.5023Z" fill="white"/>
</svg>
