<svg width="23" height="23" viewBox="0 0 23 23" fill="none" xmlns="http://www.w3.org/2000/svg">
<path d="M16.6048 22.0749C17.5797 22.0749 18.3944 21.9372 19.0488 21.6619C19.7032 21.3866 20.3013 20.942 20.8429 20.3282C20.888 20.274 20.9332 20.2199 20.9783 20.1657C21.0234 20.1116 21.0686 20.0619 21.1137 20.0168C21.4297 19.6467 21.6644 19.2856 21.8178 18.9335C21.9713 18.5815 22.048 18.2385 22.048 17.9045C22.048 17.4983 21.9261 17.1056 21.6824 16.7265C21.4387 16.3473 21.0595 15.9817 20.545 15.6297L17.4443 13.4632C16.9478 13.1202 16.4242 12.9465 15.8736 12.9419C15.323 12.9374 14.831 13.1518 14.3977 13.5851L13.5582 14.4246C13.4318 14.551 13.319 14.6187 13.2197 14.6277C13.1204 14.6367 13.0211 14.6052 12.9218 14.5329C12.6149 14.3343 12.2177 14.0161 11.7302 13.5784C11.2428 13.1405 10.8185 12.7456 10.4575 12.3936C10.0964 12.0325 9.72401 11.6353 9.34036 11.202C8.95672 10.7687 8.66109 10.3941 8.45348 10.0782C8.39029 9.96985 8.36321 9.86604 8.37223 9.76675C8.38127 9.66743 8.44446 9.55911 8.5618 9.44177L9.41485 8.58872C9.84813 8.15544 10.0625 7.66574 10.058 7.11961C10.0535 6.57348 9.87521 6.04766 9.52316 5.54215L7.37024 2.45496C7.00917 1.94042 6.63907 1.56129 6.25993 1.31756C5.88082 1.07382 5.48815 0.947445 5.08194 0.938423C4.40492 0.929401 3.70533 1.24084 2.98317 1.87272C2.92902 1.91785 2.87712 1.96523 2.82746 2.01487C2.77783 2.06453 2.72592 2.11192 2.67176 2.15705C2.05793 2.68964 1.61335 3.28542 1.33802 3.9444C1.06271 4.60335 0.925049 5.41576 0.925049 6.38164C0.925049 7.91622 1.37865 9.58619 2.28586 11.3916C3.19306 13.197 4.52227 14.9753 6.27349 16.7265C7.43796 17.8909 8.62048 18.8704 9.82105 19.6647C11.0216 20.4591 12.1974 21.0594 13.3483 21.4656C14.4993 21.8718 15.5847 22.0749 16.6048 22.0749ZM16.6183 20.2334C15.7156 20.2515 14.7452 20.0506 13.7071 19.6309C12.669 19.2111 11.6287 18.6402 10.5861 17.918C9.54348 17.1959 8.57084 16.3789 7.66815 15.4672C6.7474 14.5555 5.91241 13.5693 5.16319 12.5086C4.41394 11.448 3.82268 10.3851 3.3894 9.31989C2.9561 8.25472 2.74848 7.2708 2.76654 6.36811C2.77556 5.79039 2.88389 5.26231 3.09152 4.78389C3.29913 4.30546 3.60604 3.89473 4.01226 3.5517C4.05738 3.5156 4.09574 3.484 4.12734 3.45692C4.15893 3.42985 4.1973 3.39826 4.24245 3.36214C4.52227 3.12744 4.80661 3.0101 5.09547 3.0101C5.42948 3.0101 5.68223 3.1455 5.85374 3.41632L7.91188 6.51705C8.01117 6.66147 8.05856 6.81041 8.05405 6.96387C8.04954 7.11734 7.97958 7.25725 7.84416 7.38363L6.86926 8.35853C6.47208 8.75572 6.27801 9.17774 6.28703 9.62457C6.29605 10.0714 6.44951 10.4844 6.74741 10.8635C7.0814 11.2968 7.48761 11.7797 7.96603 12.3123C8.44446 12.8449 8.86421 13.2872 9.22528 13.6393C9.45998 13.883 9.75109 14.1651 10.0986 14.4856C10.4462 14.806 10.8005 15.1242 11.1615 15.4401C11.5226 15.7561 11.8476 16.0269 12.1365 16.2526C12.5156 16.5414 12.9263 16.6904 13.3686 16.6994C13.8109 16.7084 14.2307 16.5143 14.6279 16.1171L15.6028 15.1422C15.7382 15.0159 15.8804 14.9504 16.0293 14.9459C16.1782 14.9414 16.3295 14.9888 16.4829 15.0881L19.5701 17.1462C19.7236 17.2365 19.8296 17.3471 19.8883 17.478C19.947 17.6089 19.9763 17.7465 19.9763 17.8909C19.9763 18.1798 19.859 18.4687 19.6243 18.7575C19.5972 18.7936 19.5678 18.8297 19.5363 18.8658C19.5047 18.902 19.4753 18.9381 19.4482 18.9742C19.1052 19.3894 18.6923 19.6986 18.2093 19.9017C17.7264 20.1048 17.196 20.2154 16.6183 20.2334Z" fill="#0AB64F"/>
<path d="M13.9779 9.94279C14.2216 9.94279 14.4337 9.85253 14.6143 9.672L18.9743 5.312L20.5991 3.52467L20.3825 6.59834V7.93884C20.3825 8.17353 20.4615 8.37212 20.6194 8.5346C20.7774 8.69708 20.9738 8.78284 21.2084 8.79186C21.4522 8.80992 21.6643 8.73319 21.8448 8.56167C22.0254 8.39016 22.1157 8.18255 22.1157 7.93884V1.88629C22.1157 1.57035 22.0367 1.33113 21.8787 1.16865C21.7207 1.00617 21.4792 0.924927 21.1543 0.924927H15.1153C14.8625 0.924927 14.6527 1.01294 14.4857 1.18895C14.3187 1.36498 14.2397 1.57938 14.2487 1.83213C14.2577 2.06683 14.3458 2.25865 14.5127 2.4076C14.6797 2.55653 14.8806 2.631 15.1153 2.631H16.4558L19.543 2.44143L17.7286 4.06628L13.3686 8.43982C13.179 8.62938 13.0842 8.85054 13.0842 9.1033C13.0842 9.33799 13.17 9.53658 13.3415 9.69907C13.513 9.86155 13.7251 9.94279 13.9779 9.94279Z" fill="#0AB64F"/>
</svg>
