<svg width="22" height="26" viewBox="0 0 22 26" fill="none" xmlns="http://www.w3.org/2000/svg">
<path d="M5.80235 25.2683H16.212C17.0663 25.2683 17.7526 25.0187 18.2709 24.5196C18.7893 24.0205 19.0724 23.339 19.1204 22.4751L19.8547 6.33508H21.0497C21.3089 6.33508 21.5321 6.23909 21.7192 6.04711C21.9064 5.85513 22 5.62957 22 5.37042C22 5.11125 21.9064 4.88567 21.7192 4.69369C21.5321 4.50173 21.3089 4.40575 21.0497 4.40575H0.950259C0.700696 4.40575 0.479929 4.50173 0.287957 4.69369C0.0959858 4.88567 0 5.11125 0 5.37042C0 5.62957 0.0959858 5.85513 0.287957 6.04711C0.479929 6.23909 0.700696 6.33508 0.950259 6.33508H2.1453L2.89397 22.4895C2.93236 23.3534 3.20832 24.0325 3.72184 24.5268C4.23539 25.0211 4.92889 25.2683 5.80235 25.2683ZM5.98953 23.339C5.69197 23.339 5.4424 23.2382 5.24083 23.0366C5.03926 22.8351 4.92888 22.5759 4.90969 22.2591L4.16099 6.33508H17.7958L17.0903 22.2591C17.0807 22.5759 16.9751 22.8351 16.7735 23.0366C16.572 23.2382 16.3128 23.339 15.9961 23.339H5.98953ZM5.97511 5.31283H8.01961V2.89396C8.01961 2.59642 8.11321 2.35885 8.30039 2.18126C8.48755 2.00369 8.73471 1.91491 9.04187 1.91491H12.9437C13.2413 1.91491 13.4836 2.00369 13.6708 2.18126C13.858 2.35885 13.9516 2.59642 13.9516 2.89396V5.31283H16.0104V2.74998C16.0104 1.8957 15.7489 1.22381 15.2258 0.734284C14.7027 0.244762 13.99 0 13.0877 0H8.88349C7.98123 0 7.27094 0.244762 6.75262 0.734284C6.23428 1.22381 5.97511 1.8957 5.97511 2.74998V5.31283ZM11 21.5536C11.2496 21.5536 11.4487 21.4841 11.5975 21.3449C11.7463 21.2057 11.8207 21.0257 11.8207 20.8049V8.99869C11.8207 8.77791 11.7463 8.59794 11.5975 8.45876C11.4487 8.31958 11.2496 8.24999 11 8.24999C10.76 8.24999 10.5633 8.31958 10.4097 8.45876C10.2561 8.59794 10.1793 8.77791 10.1793 8.99869V20.8049C10.1793 21.0257 10.2561 21.2057 10.4097 21.3449C10.5633 21.4841 10.76 21.5536 11 21.5536ZM14.3403 21.5536C14.5611 21.5536 14.7458 21.4865 14.8946 21.3521C15.0434 21.2177 15.1226 21.0353 15.1322 20.8049L15.449 8.99869C15.4585 8.77791 15.3889 8.59794 15.2402 8.45876C15.0914 8.31958 14.897 8.24999 14.6571 8.24999C14.4267 8.24999 14.2395 8.31718 14.0955 8.45156C13.9516 8.58594 13.8748 8.76832 13.8652 8.99869L13.5484 20.8049C13.5388 21.0257 13.606 21.2057 13.75 21.3449C13.894 21.4841 14.0907 21.5536 14.3403 21.5536ZM7.67409 21.5536C7.91405 21.5536 8.10842 21.4841 8.25719 21.3449C8.40596 21.2057 8.47555 21.0257 8.46596 20.8049L8.13482 8.99869C8.13482 8.76832 8.06042 8.58594 7.91163 8.45156C7.76286 8.31718 7.57329 8.24999 7.34292 8.24999C7.10296 8.24999 6.91099 8.31958 6.76701 8.45876C6.62304 8.59794 6.55105 8.77791 6.55105 8.99869L6.88219 20.8049C6.89178 21.0353 6.96857 21.2177 7.11257 21.3521C7.25654 21.4865 7.44372 21.5536 7.67409 21.5536Z" fill="white"/>
</svg>
