<svg width="26" height="26" viewBox="0 0 26 26" fill="none" xmlns="http://www.w3.org/2000/svg">
<path d="M12.9919 25.9839C14.7736 25.9839 16.4479 25.6458 18.0148 24.9696C19.5818 24.2935 20.9637 23.3544 22.1604 22.1523C23.3571 20.9502 24.2962 19.5657 24.9777 17.9987C25.6592 16.4318 26 14.7628 26 12.9919C26 11.2211 25.6592 9.55212 24.9777 7.98512C24.2962 6.41815 23.3544 5.03363 22.1523 3.83158C20.9502 2.62951 19.5657 1.6904 17.9988 1.01425C16.4318 0.338084 14.7575 0 12.9758 0C11.205 0 9.53602 0.338084 7.96905 1.01425C6.40207 1.6904 5.02291 2.62951 3.83157 3.83158C2.64024 5.03363 1.70381 6.41815 1.02229 7.98512C0.340763 9.55212 0 11.2211 0 12.9919C0 14.7628 0.340763 16.4318 1.02229 17.9987C1.70381 19.5657 2.64292 20.9502 3.83961 22.1523C5.03632 23.3544 6.41816 24.2935 7.98514 24.9696C9.55211 25.6458 11.221 25.9839 12.9919 25.9839ZM12.9919 23.5368C11.5323 23.5368 10.1666 23.2658 8.89474 22.7238C7.6229 22.1818 6.50669 21.4278 5.54612 20.4619C4.58554 19.496 3.83426 18.3744 3.29226 17.0972C2.75026 15.82 2.47927 14.4516 2.47927 12.9919C2.47927 11.5323 2.74758 10.1639 3.28422 8.88667C3.82085 7.60949 4.56945 6.48792 5.53003 5.52197C6.4906 4.55603 7.6068 3.80206 8.87862 3.26006C10.1505 2.71807 11.5162 2.44707 12.9758 2.44707C14.4462 2.44707 15.8173 2.71807 17.0892 3.26006C18.361 3.80206 19.4799 4.55603 20.4458 5.52197C21.4118 6.48792 22.1684 7.60949 22.7158 8.88667C23.2632 10.1639 23.5368 11.5323 23.5368 12.9919C23.5368 14.4516 23.2658 15.82 22.7238 17.0972C22.1818 18.3744 21.4305 19.496 20.47 20.4619C19.5094 21.4278 18.3905 22.1818 17.1133 22.7238C15.8361 23.2658 14.4623 23.5368 12.9919 23.5368Z" fill="white"/>
<path d="M11.6076 18.9808C12.0906 18.9808 12.477 18.7554 12.7668 18.3046L18.3048 9.54673C18.3907 9.40719 18.4712 9.25962 18.5463 9.10399C18.6215 8.94837 18.659 8.78469 18.659 8.61296C18.659 8.29099 18.5383 8.03609 18.2968 7.84826C18.0553 7.66044 17.7843 7.56653 17.4838 7.56653C17.0867 7.56653 16.7593 7.78118 16.5018 8.21048L11.5432 16.2278L9.32157 13.2334C9.14985 13.008 8.97813 12.8551 8.8064 12.7746C8.63469 12.6941 8.45224 12.6538 8.25905 12.6538C7.9478 12.6538 7.68485 12.7665 7.47019 12.9919C7.25552 13.2173 7.14819 13.4856 7.14819 13.7969C7.14819 14.1081 7.25552 14.4033 7.47019 14.6823L10.368 18.3046C10.5505 18.5515 10.741 18.7259 10.9395 18.8278C11.1381 18.9298 11.3608 18.9808 11.6076 18.9808Z" fill="white"/>
</svg>
