<svg width="24" height="24" viewBox="0 0 24 24" fill="none" xmlns="http://www.w3.org/2000/svg">
<path d="M0.52249 23.4659C0.870792 23.8294 1.30619 24.0073 1.82867 23.9998C2.35115 23.9922 2.78655 23.8142 3.13485 23.4659L11.9942 14.5838L20.8763 23.4659C21.2246 23.8142 21.6562 23.9922 22.1711 23.9998C22.686 24.0073 23.1176 23.8294 23.466 23.4659C23.8294 23.1176 24.0074 22.686 23.9998 22.1711C23.9922 21.6562 23.8143 21.2246 23.466 20.8763L14.5839 11.9942L23.466 3.13486C23.8143 2.77139 23.9922 2.3322 23.9998 1.81728C24.0074 1.3024 23.8294 0.870787 23.466 0.522454C23.1176 0.174152 22.686 0 22.1711 0C21.6562 0 21.2246 0.174152 20.8763 0.522454L11.9942 9.40453L3.13485 0.522454C2.78655 0.174152 2.35115 0 1.82867 0C1.30619 0 0.870792 0.174152 0.52249 0.522454C0.174163 0.870787 0 1.3024 0 1.81728C0 2.3322 0.174163 2.77139 0.52249 3.13486L9.40457 11.9942L0.52249 20.8763C0.174163 21.2246 0 21.6562 0 22.1711C0 22.686 0.174163 23.1176 0.52249 23.4659Z" fill="white"/>
</svg>
